<?xml version="1.0" encoding="utf-8" standalone="no"?>
<!DOCTYPE svg PUBLIC "-//W3C//DTD SVG 1.1//EN"
  "http://www.w3.org/Graphics/SVG/1.1/DTD/svg11.dtd">
<svg height="720pt" version="1.1" viewBox="0 0 1152 720" width="1152pt" xmlns="http://www.w3.org/2000/svg" xmlns:xlink="http://www.w3.org/1999/xlink">
 <metadata>
  <rdf:RDF xmlns:cc="http://creativecommons.org/ns#" xmlns:dc="http://purl.org/dc/elements/1.1/" xmlns:rdf="http://www.w3.org/1999/02/22-rdf-syntax-ns#">
   <cc:Work>
    <dc:type rdf:resource="http://purl.org/dc/dcmitype/StillImage"/>
    <dc:date>2022-04-26T18:18:31.681462</dc:date>
    <dc:format>image/svg+xml</dc:format>
    <dc:creator>
     <cc:Agent>
      <dc:title>Matplotlib v3.4.3, https://matplotlib.org/</dc:title>
     </cc:Agent>
    </dc:creator>
   </cc:Work>
  </rdf:RDF>
 </metadata>
 <defs>
  <style type="text/css">*{stroke-linecap:butt;stroke-linejoin:round;}</style>
 </defs>
 <g id="figure_1">
  <g id="patch_1">
   <path d="M 0 720 
L 1152 720 
L 1152 0 
L 0 0 
z
" style="fill:#ffffff;"/>
  </g>
  <g id="axes_1">
   <g id="patch_2">
    <path d="M 144 640.8 
L 1036.8 640.8 
L 1036.8 86.4 
L 144 86.4 
z
" style="fill:#ffffff;"/>
   </g>
   <g id="matplotlib.axis_1">
    <g id="xtick_1">
     <g id="line2d_1">
      <defs>
       <path d="M 0 0 
L 0 3.5 
" id="m6e62e0340f" style="stroke:#000000;stroke-width:0.8;"/>
      </defs>
      <g>
       <use style="stroke:#000000;stroke-width:0.8;" x="184.581818" xlink:href="#m6e62e0340f" y="640.8"/>
      </g>
     </g>
     <g id="text_1">
      <!-- 0 -->
      <g transform="translate(181.400568 655.398438)scale(0.1 -0.1)">
       <defs>
        <path d="M 2034 4250 
Q 1547 4250 1301 3770 
Q 1056 3291 1056 2328 
Q 1056 1369 1301 889 
Q 1547 409 2034 409 
Q 2525 409 2770 889 
Q 3016 1369 3016 2328 
Q 3016 3291 2770 3770 
Q 2525 4250 2034 4250 
z
M 2034 4750 
Q 2819 4750 3233 4129 
Q 3647 3509 3647 2328 
Q 3647 1150 3233 529 
Q 2819 -91 2034 -91 
Q 1250 -91 836 529 
Q 422 1150 422 2328 
Q 422 3509 836 4129 
Q 1250 4750 2034 4750 
z
" id="DejaVuSans-30" transform="scale(0.015625)"/>
       </defs>
       <use xlink:href="#DejaVuSans-30"/>
      </g>
     </g>
    </g>
    <g id="xtick_2">
     <g id="line2d_2">
      <g>
       <use style="stroke:#000000;stroke-width:0.8;" x="309.352973" xlink:href="#m6e62e0340f" y="640.8"/>
      </g>
     </g>
     <g id="text_2">
      <!-- 200 -->
      <g transform="translate(299.809223 655.398438)scale(0.1 -0.1)">
       <defs>
        <path d="M 1228 531 
L 3431 531 
L 3431 0 
L 469 0 
L 469 531 
Q 828 903 1448 1529 
Q 2069 2156 2228 2338 
Q 2531 2678 2651 2914 
Q 2772 3150 2772 3378 
Q 2772 3750 2511 3984 
Q 2250 4219 1831 4219 
Q 1534 4219 1204 4116 
Q 875 4013 500 3803 
L 500 4441 
Q 881 4594 1212 4672 
Q 1544 4750 1819 4750 
Q 2544 4750 2975 4387 
Q 3406 4025 3406 3419 
Q 3406 3131 3298 2873 
Q 3191 2616 2906 2266 
Q 2828 2175 2409 1742 
Q 1991 1309 1228 531 
z
" id="DejaVuSans-32" transform="scale(0.015625)"/>
       </defs>
       <use xlink:href="#DejaVuSans-32"/>
       <use x="63.623047" xlink:href="#DejaVuSans-30"/>
       <use x="127.246094" xlink:href="#DejaVuSans-30"/>
      </g>
     </g>
    </g>
    <g id="xtick_3">
     <g id="line2d_3">
      <g>
       <use style="stroke:#000000;stroke-width:0.8;" x="434.124128" xlink:href="#m6e62e0340f" y="640.8"/>
      </g>
     </g>
     <g id="text_3">
      <!-- 400 -->
      <g transform="translate(424.580378 655.398438)scale(0.1 -0.1)">
       <defs>
        <path d="M 2419 4116 
L 825 1625 
L 2419 1625 
L 2419 4116 
z
M 2253 4666 
L 3047 4666 
L 3047 1625 
L 3713 1625 
L 3713 1100 
L 3047 1100 
L 3047 0 
L 2419 0 
L 2419 1100 
L 313 1100 
L 313 1709 
L 2253 4666 
z
" id="DejaVuSans-34" transform="scale(0.015625)"/>
       </defs>
       <use xlink:href="#DejaVuSans-34"/>
       <use x="63.623047" xlink:href="#DejaVuSans-30"/>
       <use x="127.246094" xlink:href="#DejaVuSans-30"/>
      </g>
     </g>
    </g>
    <g id="xtick_4">
     <g id="line2d_4">
      <g>
       <use style="stroke:#000000;stroke-width:0.8;" x="558.895283" xlink:href="#m6e62e0340f" y="640.8"/>
      </g>
     </g>
     <g id="text_4">
      <!-- 600 -->
      <g transform="translate(549.351533 655.398438)scale(0.1 -0.1)">
       <defs>
        <path d="M 2113 2584 
Q 1688 2584 1439 2293 
Q 1191 2003 1191 1497 
Q 1191 994 1439 701 
Q 1688 409 2113 409 
Q 2538 409 2786 701 
Q 3034 994 3034 1497 
Q 3034 2003 2786 2293 
Q 2538 2584 2113 2584 
z
M 3366 4563 
L 3366 3988 
Q 3128 4100 2886 4159 
Q 2644 4219 2406 4219 
Q 1781 4219 1451 3797 
Q 1122 3375 1075 2522 
Q 1259 2794 1537 2939 
Q 1816 3084 2150 3084 
Q 2853 3084 3261 2657 
Q 3669 2231 3669 1497 
Q 3669 778 3244 343 
Q 2819 -91 2113 -91 
Q 1303 -91 875 529 
Q 447 1150 447 2328 
Q 447 3434 972 4092 
Q 1497 4750 2381 4750 
Q 2619 4750 2861 4703 
Q 3103 4656 3366 4563 
z
" id="DejaVuSans-36" transform="scale(0.015625)"/>
       </defs>
       <use xlink:href="#DejaVuSans-36"/>
       <use x="63.623047" xlink:href="#DejaVuSans-30"/>
       <use x="127.246094" xlink:href="#DejaVuSans-30"/>
      </g>
     </g>
    </g>
    <g id="xtick_5">
     <g id="line2d_5">
      <g>
       <use style="stroke:#000000;stroke-width:0.8;" x="683.666438" xlink:href="#m6e62e0340f" y="640.8"/>
      </g>
     </g>
     <g id="text_5">
      <!-- 800 -->
      <g transform="translate(674.122688 655.398438)scale(0.1 -0.1)">
       <defs>
        <path d="M 2034 2216 
Q 1584 2216 1326 1975 
Q 1069 1734 1069 1313 
Q 1069 891 1326 650 
Q 1584 409 2034 409 
Q 2484 409 2743 651 
Q 3003 894 3003 1313 
Q 3003 1734 2745 1975 
Q 2488 2216 2034 2216 
z
M 1403 2484 
Q 997 2584 770 2862 
Q 544 3141 544 3541 
Q 544 4100 942 4425 
Q 1341 4750 2034 4750 
Q 2731 4750 3128 4425 
Q 3525 4100 3525 3541 
Q 3525 3141 3298 2862 
Q 3072 2584 2669 2484 
Q 3125 2378 3379 2068 
Q 3634 1759 3634 1313 
Q 3634 634 3220 271 
Q 2806 -91 2034 -91 
Q 1263 -91 848 271 
Q 434 634 434 1313 
Q 434 1759 690 2068 
Q 947 2378 1403 2484 
z
M 1172 3481 
Q 1172 3119 1398 2916 
Q 1625 2713 2034 2713 
Q 2441 2713 2670 2916 
Q 2900 3119 2900 3481 
Q 2900 3844 2670 4047 
Q 2441 4250 2034 4250 
Q 1625 4250 1398 4047 
Q 1172 3844 1172 3481 
z
" id="DejaVuSans-38" transform="scale(0.015625)"/>
       </defs>
       <use xlink:href="#DejaVuSans-38"/>
       <use x="63.623047" xlink:href="#DejaVuSans-30"/>
       <use x="127.246094" xlink:href="#DejaVuSans-30"/>
      </g>
     </g>
    </g>
    <g id="xtick_6">
     <g id="line2d_6">
      <g>
       <use style="stroke:#000000;stroke-width:0.8;" x="808.437593" xlink:href="#m6e62e0340f" y="640.8"/>
      </g>
     </g>
     <g id="text_6">
      <!-- 1000 -->
      <g transform="translate(795.712593 655.398438)scale(0.1 -0.1)">
       <defs>
        <path d="M 794 531 
L 1825 531 
L 1825 4091 
L 703 3866 
L 703 4441 
L 1819 4666 
L 2450 4666 
L 2450 531 
L 3481 531 
L 3481 0 
L 794 0 
L 794 531 
z
" id="DejaVuSans-31" transform="scale(0.015625)"/>
       </defs>
       <use xlink:href="#DejaVuSans-31"/>
       <use x="63.623047" xlink:href="#DejaVuSans-30"/>
       <use x="127.246094" xlink:href="#DejaVuSans-30"/>
       <use x="190.869141" xlink:href="#DejaVuSans-30"/>
      </g>
     </g>
    </g>
    <g id="xtick_7">
     <g id="line2d_7">
      <g>
       <use style="stroke:#000000;stroke-width:0.8;" x="933.208749" xlink:href="#m6e62e0340f" y="640.8"/>
      </g>
     </g>
     <g id="text_7">
      <!-- 1200 -->
      <g transform="translate(920.483749 655.398438)scale(0.1 -0.1)">
       <use xlink:href="#DejaVuSans-31"/>
       <use x="63.623047" xlink:href="#DejaVuSans-32"/>
       <use x="127.246094" xlink:href="#DejaVuSans-30"/>
       <use x="190.869141" xlink:href="#DejaVuSans-30"/>
      </g>
     </g>
    </g>
    <g id="text_8">
     <!-- Время, с -->
     <g transform="translate(568.011719 669.076563)scale(0.1 -0.1)">
      <defs>
       <path d="M 1259 2228 
L 1259 519 
L 2272 519 
Q 2781 519 3026 730 
Q 3272 941 3272 1375 
Q 3272 1813 3026 2020 
Q 2781 2228 2272 2228 
L 1259 2228 
z
M 1259 4147 
L 1259 2741 
L 2194 2741 
Q 2656 2741 2882 2914 
Q 3109 3088 3109 3444 
Q 3109 3797 2882 3972 
Q 2656 4147 2194 4147 
L 1259 4147 
z
M 628 4666 
L 2241 4666 
Q 2963 4666 3353 4366 
Q 3744 4066 3744 3513 
Q 3744 3084 3544 2831 
Q 3344 2578 2956 2516 
Q 3422 2416 3680 2098 
Q 3938 1781 3938 1306 
Q 3938 681 3513 340 
Q 3088 0 2303 0 
L 628 0 
L 628 4666 
z
" id="DejaVuSans-412" transform="scale(0.015625)"/>
       <path d="M 1159 525 
L 1159 -1331 
L 581 -1331 
L 581 3500 
L 1159 3500 
L 1159 2969 
Q 1341 3281 1617 3432 
Q 1894 3584 2278 3584 
Q 2916 3584 3314 3078 
Q 3713 2572 3713 1747 
Q 3713 922 3314 415 
Q 2916 -91 2278 -91 
Q 1894 -91 1617 61 
Q 1341 213 1159 525 
z
M 3116 1747 
Q 3116 2381 2855 2742 
Q 2594 3103 2138 3103 
Q 1681 3103 1420 2742 
Q 1159 2381 1159 1747 
Q 1159 1113 1420 752 
Q 1681 391 2138 391 
Q 2594 391 2855 752 
Q 3116 1113 3116 1747 
z
" id="DejaVuSans-440" transform="scale(0.015625)"/>
       <path d="M 3597 1894 
L 3597 1613 
L 953 1613 
Q 991 1019 1311 708 
Q 1631 397 2203 397 
Q 2534 397 2845 478 
Q 3156 559 3463 722 
L 3463 178 
Q 3153 47 2828 -22 
Q 2503 -91 2169 -91 
Q 1331 -91 842 396 
Q 353 884 353 1716 
Q 353 2575 817 3079 
Q 1281 3584 2069 3584 
Q 2775 3584 3186 3129 
Q 3597 2675 3597 1894 
z
M 3022 2063 
Q 3016 2534 2758 2815 
Q 2500 3097 2075 3097 
Q 1594 3097 1305 2825 
Q 1016 2553 972 2059 
L 3022 2063 
z
" id="DejaVuSans-435" transform="scale(0.015625)"/>
       <path d="M 581 3500 
L 1422 3500 
L 2416 1156 
L 3413 3500 
L 4247 3500 
L 4247 0 
L 3669 0 
L 3669 2950 
L 2703 672 
L 2128 672 
L 1159 2950 
L 1159 0 
L 581 0 
L 581 3500 
z
" id="DejaVuSans-43c" transform="scale(0.015625)"/>
       <path d="M 1181 2491 
Q 1181 2231 1381 2084 
Q 1581 1938 1953 1938 
L 2728 1938 
L 2728 3041 
L 1953 3041 
Q 1581 3041 1381 2897 
Q 1181 2753 1181 2491 
z
M 363 0 
L 1431 1534 
Q 1069 1616 828 1830 
Q 588 2044 588 2491 
Q 588 2997 923 3248 
Q 1259 3500 1938 3500 
L 3306 3500 
L 3306 0 
L 2728 0 
L 2728 1478 
L 2013 1478 
L 981 0 
L 363 0 
z
" id="DejaVuSans-44f" transform="scale(0.015625)"/>
       <path d="M 750 794 
L 1409 794 
L 1409 256 
L 897 -744 
L 494 -744 
L 750 256 
L 750 794 
z
" id="DejaVuSans-2c" transform="scale(0.015625)"/>
       <path id="DejaVuSans-20" transform="scale(0.015625)"/>
       <path d="M 3122 3366 
L 3122 2828 
Q 2878 2963 2633 3030 
Q 2388 3097 2138 3097 
Q 1578 3097 1268 2742 
Q 959 2388 959 1747 
Q 959 1106 1268 751 
Q 1578 397 2138 397 
Q 2388 397 2633 464 
Q 2878 531 3122 666 
L 3122 134 
Q 2881 22 2623 -34 
Q 2366 -91 2075 -91 
Q 1284 -91 818 406 
Q 353 903 353 1747 
Q 353 2603 823 3093 
Q 1294 3584 2113 3584 
Q 2378 3584 2631 3529 
Q 2884 3475 3122 3366 
z
" id="DejaVuSans-441" transform="scale(0.015625)"/>
      </defs>
      <use xlink:href="#DejaVuSans-412"/>
      <use x="68.603516" xlink:href="#DejaVuSans-440"/>
      <use x="132.080078" xlink:href="#DejaVuSans-435"/>
      <use x="193.603516" xlink:href="#DejaVuSans-43c"/>
      <use x="269.042969" xlink:href="#DejaVuSans-44f"/>
      <use x="329.199219" xlink:href="#DejaVuSans-2c"/>
      <use x="360.986328" xlink:href="#DejaVuSans-20"/>
      <use x="392.773438" xlink:href="#DejaVuSans-441"/>
     </g>
    </g>
   </g>
   <g id="matplotlib.axis_2">
    <g id="ytick_1">
     <g id="line2d_8">
      <defs>
       <path d="M 0 0 
L -3.5 0 
" id="md89dc657f2" style="stroke:#000000;stroke-width:0.8;"/>
      </defs>
      <g>
       <use style="stroke:#000000;stroke-width:0.8;" x="144" xlink:href="#md89dc657f2" y="617.665574"/>
      </g>
     </g>
     <g id="text_9">
      <!-- 0.0 -->
      <g transform="translate(121.096875 621.464793)scale(0.1 -0.1)">
       <defs>
        <path d="M 684 794 
L 1344 794 
L 1344 0 
L 684 0 
L 684 794 
z
" id="DejaVuSans-2e" transform="scale(0.015625)"/>
       </defs>
       <use xlink:href="#DejaVuSans-30"/>
       <use x="63.623047" xlink:href="#DejaVuSans-2e"/>
       <use x="95.410156" xlink:href="#DejaVuSans-30"/>
      </g>
     </g>
    </g>
    <g id="ytick_2">
     <g id="line2d_9">
      <g>
       <use style="stroke:#000000;stroke-width:0.8;" x="144" xlink:href="#md89dc657f2" y="537.546349"/>
      </g>
     </g>
     <g id="text_10">
      <!-- 0.5 -->
      <g transform="translate(121.096875 541.345567)scale(0.1 -0.1)">
       <defs>
        <path d="M 691 4666 
L 3169 4666 
L 3169 4134 
L 1269 4134 
L 1269 2991 
Q 1406 3038 1543 3061 
Q 1681 3084 1819 3084 
Q 2600 3084 3056 2656 
Q 3513 2228 3513 1497 
Q 3513 744 3044 326 
Q 2575 -91 1722 -91 
Q 1428 -91 1123 -41 
Q 819 9 494 109 
L 494 744 
Q 775 591 1075 516 
Q 1375 441 1709 441 
Q 2250 441 2565 725 
Q 2881 1009 2881 1497 
Q 2881 1984 2565 2268 
Q 2250 2553 1709 2553 
Q 1456 2553 1204 2497 
Q 953 2441 691 2322 
L 691 4666 
z
" id="DejaVuSans-35" transform="scale(0.015625)"/>
       </defs>
       <use xlink:href="#DejaVuSans-30"/>
       <use x="63.623047" xlink:href="#DejaVuSans-2e"/>
       <use x="95.410156" xlink:href="#DejaVuSans-35"/>
      </g>
     </g>
    </g>
    <g id="ytick_3">
     <g id="line2d_10">
      <g>
       <use style="stroke:#000000;stroke-width:0.8;" x="144" xlink:href="#md89dc657f2" y="457.427124"/>
      </g>
     </g>
     <g id="text_11">
      <!-- 1.0 -->
      <g transform="translate(121.096875 461.226342)scale(0.1 -0.1)">
       <use xlink:href="#DejaVuSans-31"/>
       <use x="63.623047" xlink:href="#DejaVuSans-2e"/>
       <use x="95.410156" xlink:href="#DejaVuSans-30"/>
      </g>
     </g>
    </g>
    <g id="ytick_4">
     <g id="line2d_11">
      <g>
       <use style="stroke:#000000;stroke-width:0.8;" x="144" xlink:href="#md89dc657f2" y="377.307899"/>
      </g>
     </g>
     <g id="text_12">
      <!-- 1.5 -->
      <g transform="translate(121.096875 381.107117)scale(0.1 -0.1)">
       <use xlink:href="#DejaVuSans-31"/>
       <use x="63.623047" xlink:href="#DejaVuSans-2e"/>
       <use x="95.410156" xlink:href="#DejaVuSans-35"/>
      </g>
     </g>
    </g>
    <g id="ytick_5">
     <g id="line2d_12">
      <g>
       <use style="stroke:#000000;stroke-width:0.8;" x="144" xlink:href="#md89dc657f2" y="297.188674"/>
      </g>
     </g>
     <g id="text_13">
      <!-- 2.0 -->
      <g transform="translate(121.096875 300.987892)scale(0.1 -0.1)">
       <use xlink:href="#DejaVuSans-32"/>
       <use x="63.623047" xlink:href="#DejaVuSans-2e"/>
       <use x="95.410156" xlink:href="#DejaVuSans-30"/>
      </g>
     </g>
    </g>
    <g id="ytick_6">
     <g id="line2d_13">
      <g>
       <use style="stroke:#000000;stroke-width:0.8;" x="144" xlink:href="#md89dc657f2" y="217.069449"/>
      </g>
     </g>
     <g id="text_14">
      <!-- 2.5 -->
      <g transform="translate(121.096875 220.868667)scale(0.1 -0.1)">
       <use xlink:href="#DejaVuSans-32"/>
       <use x="63.623047" xlink:href="#DejaVuSans-2e"/>
       <use x="95.410156" xlink:href="#DejaVuSans-35"/>
      </g>
     </g>
    </g>
    <g id="ytick_7">
     <g id="line2d_14">
      <g>
       <use style="stroke:#000000;stroke-width:0.8;" x="144" xlink:href="#md89dc657f2" y="136.950224"/>
      </g>
     </g>
     <g id="text_15">
      <!-- 3.0 -->
      <g transform="translate(121.096875 140.749442)scale(0.1 -0.1)">
       <defs>
        <path d="M 2597 2516 
Q 3050 2419 3304 2112 
Q 3559 1806 3559 1356 
Q 3559 666 3084 287 
Q 2609 -91 1734 -91 
Q 1441 -91 1130 -33 
Q 819 25 488 141 
L 488 750 
Q 750 597 1062 519 
Q 1375 441 1716 441 
Q 2309 441 2620 675 
Q 2931 909 2931 1356 
Q 2931 1769 2642 2001 
Q 2353 2234 1838 2234 
L 1294 2234 
L 1294 2753 
L 1863 2753 
Q 2328 2753 2575 2939 
Q 2822 3125 2822 3475 
Q 2822 3834 2567 4026 
Q 2313 4219 1838 4219 
Q 1578 4219 1281 4162 
Q 984 4106 628 3988 
L 628 4550 
Q 988 4650 1302 4700 
Q 1616 4750 1894 4750 
Q 2613 4750 3031 4423 
Q 3450 4097 3450 3541 
Q 3450 3153 3228 2886 
Q 3006 2619 2597 2516 
z
" id="DejaVuSans-33" transform="scale(0.015625)"/>
       </defs>
       <use xlink:href="#DejaVuSans-33"/>
       <use x="63.623047" xlink:href="#DejaVuSans-2e"/>
       <use x="95.410156" xlink:href="#DejaVuSans-30"/>
      </g>
     </g>
    </g>
    <g id="text_16">
     <!-- Напряжение, В -->
     <g transform="translate(115.017187 403.659375)rotate(-90)scale(0.1 -0.1)">
      <defs>
       <path d="M 628 4666 
L 1259 4666 
L 1259 2753 
L 3553 2753 
L 3553 4666 
L 4184 4666 
L 4184 0 
L 3553 0 
L 3553 2222 
L 1259 2222 
L 1259 0 
L 628 0 
L 628 4666 
z
" id="DejaVuSans-41d" transform="scale(0.015625)"/>
       <path d="M 2194 1759 
Q 1497 1759 1228 1600 
Q 959 1441 959 1056 
Q 959 750 1161 570 
Q 1363 391 1709 391 
Q 2188 391 2477 730 
Q 2766 1069 2766 1631 
L 2766 1759 
L 2194 1759 
z
M 3341 1997 
L 3341 0 
L 2766 0 
L 2766 531 
Q 2569 213 2275 61 
Q 1981 -91 1556 -91 
Q 1019 -91 701 211 
Q 384 513 384 1019 
Q 384 1609 779 1909 
Q 1175 2209 1959 2209 
L 2766 2209 
L 2766 2266 
Q 2766 2663 2505 2880 
Q 2244 3097 1772 3097 
Q 1472 3097 1187 3025 
Q 903 2953 641 2809 
L 641 3341 
Q 956 3463 1253 3523 
Q 1550 3584 1831 3584 
Q 2591 3584 2966 3190 
Q 3341 2797 3341 1997 
z
" id="DejaVuSans-430" transform="scale(0.015625)"/>
       <path d="M 3603 3500 
L 3603 0 
L 3025 0 
L 3025 3041 
L 1159 3041 
L 1159 0 
L 581 0 
L 581 3500 
L 3603 3500 
z
" id="DejaVuSans-43f" transform="scale(0.015625)"/>
       <path d="M 2597 3500 
L 3169 3500 
L 3169 1856 
L 4697 3500 
L 5366 3500 
L 4109 2153 
L 5547 0 
L 4931 0 
L 3753 1769 
L 3169 1141 
L 3169 0 
L 2597 0 
L 2597 1141 
L 2013 1769 
L 834 0 
L 219 0 
L 1656 2153 
L 400 3500 
L 1069 3500 
L 2597 1856 
L 2597 3500 
z
" id="DejaVuSans-436" transform="scale(0.015625)"/>
       <path d="M 581 3500 
L 1159 3500 
L 1159 2072 
L 3025 2072 
L 3025 3500 
L 3603 3500 
L 3603 0 
L 3025 0 
L 3025 1613 
L 1159 1613 
L 1159 0 
L 581 0 
L 581 3500 
z
" id="DejaVuSans-43d" transform="scale(0.015625)"/>
       <path d="M 3578 3500 
L 3578 0 
L 3006 0 
L 3006 2809 
L 1319 0 
L 581 0 
L 581 3500 
L 1153 3500 
L 1153 697 
L 2838 3500 
L 3578 3500 
z
" id="DejaVuSans-438" transform="scale(0.015625)"/>
      </defs>
      <use xlink:href="#DejaVuSans-41d"/>
      <use x="75.195312" xlink:href="#DejaVuSans-430"/>
      <use x="136.474609" xlink:href="#DejaVuSans-43f"/>
      <use x="201.855469" xlink:href="#DejaVuSans-440"/>
      <use x="265.332031" xlink:href="#DejaVuSans-44f"/>
      <use x="325.488281" xlink:href="#DejaVuSans-436"/>
      <use x="415.576172" xlink:href="#DejaVuSans-435"/>
      <use x="477.099609" xlink:href="#DejaVuSans-43d"/>
      <use x="542.480469" xlink:href="#DejaVuSans-438"/>
      <use x="607.470703" xlink:href="#DejaVuSans-435"/>
      <use x="668.994141" xlink:href="#DejaVuSans-2c"/>
      <use x="700.78125" xlink:href="#DejaVuSans-20"/>
      <use x="732.568359" xlink:href="#DejaVuSans-412"/>
     </g>
    </g>
   </g>
   <g id="line2d_15">
    <path clip-path="url(#p900d1375dc)" d="M 184.581818 613.534426 
L 185.205674 615.6 
L 185.82953 613.534426 
L 187.077241 613.534426 
L 187.701097 611.468852 
L 188.324953 613.534426 
L 188.948809 613.534426 
L 189.572664 611.468852 
L 190.19652 613.534426 
L 191.444232 609.403279 
L 192.068087 611.468852 
L 192.691943 609.403279 
L 195.811222 609.403279 
L 196.435078 607.337705 
L 199.554357 607.337705 
L 200.178213 605.272131 
L 202.673636 605.272131 
L 204.545203 599.07541 
L 205.169059 601.140984 
L 205.792915 601.140984 
L 207.040626 597.009836 
L 207.664482 597.009836 
L 208.288338 594.944262 
L 209.536049 594.944262 
L 210.159905 592.878689 
L 210.783761 592.878689 
L 211.407617 590.813115 
L 212.655328 590.813115 
L 213.279184 586.681967 
L 213.90304 586.681967 
L 214.526895 584.616393 
L 215.150751 584.616393 
L 216.398463 580.485246 
L 217.646174 580.485246 
L 218.27003 576.354098 
L 218.893886 574.288525 
L 219.517742 574.288525 
L 222.013165 566.02623 
L 222.63702 566.02623 
L 223.260876 561.895082 
L 223.884732 561.895082 
L 224.508588 557.763934 
L 225.132444 555.698361 
L 225.756299 555.698361 
L 226.380155 553.632787 
L 227.004011 549.501639 
L 228.251722 545.370492 
L 229.499434 537.108197 
L 230.12329 537.108197 
L 230.747146 532.977049 
L 231.371001 530.911475 
L 231.994857 526.780328 
L 232.618713 524.714754 
L 233.242569 520.583607 
L 233.866424 518.518033 
L 235.114136 510.255738 
L 235.737992 504.059016 
L 236.985703 499.927869 
L 240.104982 479.272131 
L 240.728838 477.206557 
L 242.600405 464.813115 
L 243.224261 458.616393 
L 244.471973 450.354098 
L 245.095828 444.157377 
L 245.719684 442.091803 
L 246.34354 437.960656 
L 247.591251 425.567213 
L 248.838963 417.304918 
L 249.462819 411.108197 
L 250.086675 406.977049 
L 250.71053 400.780328 
L 252.582098 388.386885 
L 253.829809 375.993443 
L 255.077521 367.731148 
L 256.325232 355.337705 
L 256.949088 351.206557 
L 257.572944 345.009836 
L 258.820655 336.747541 
L 259.444511 330.55082 
L 260.068367 326.419672 
L 261.316079 314.02623 
L 261.939934 309.895082 
L 262.56379 303.698361 
L 263.187646 299.567213 
L 263.811502 293.370492 
L 264.435357 291.304918 
L 265.059213 285.108197 
L 265.683069 280.977049 
L 266.306925 274.780328 
L 269.426204 254.12459 
L 270.050059 247.927869 
L 270.673915 245.862295 
L 271.297771 239.665574 
L 271.921627 235.534426 
L 272.545482 233.468852 
L 275.040906 216.944262 
L 275.664761 214.878689 
L 276.912473 206.616393 
L 277.536329 204.55082 
L 279.407896 192.157377 
L 280.031752 192.157377 
L 280.655608 188.02623 
L 281.903319 183.895082 
L 282.527175 179.763934 
L 283.151031 177.698361 
L 283.774886 173.567213 
L 284.398742 173.567213 
L 285.646454 165.304918 
L 286.27031 165.304918 
L 286.894165 163.239344 
L 287.518021 159.108197 
L 288.141877 159.108197 
L 290.6373 150.845902 
L 291.261156 146.714754 
L 291.885012 146.714754 
L 293.132723 142.583607 
L 293.756579 142.583607 
L 295.628146 136.386885 
L 296.252002 136.386885 
L 297.499714 132.255738 
L 298.123569 132.255738 
L 298.747425 130.190164 
L 299.371281 130.190164 
L 299.995137 126.059016 
L 301.866704 126.059016 
L 302.49056 123.993443 
L 303.114415 123.993443 
L 303.738271 121.927869 
L 304.985983 121.927869 
L 306.233694 117.796721 
L 306.85755 119.862295 
L 307.481406 117.796721 
L 308.105262 117.796721 
L 308.729117 115.731148 
L 309.976829 115.731148 
L 310.600685 113.665574 
L 311.848396 113.665574 
L 312.472252 111.6 
L 313.719964 111.6 
L 314.343819 130.190164 
L 314.967675 144.64918 
L 315.591531 163.239344 
L 316.215387 175.632787 
L 316.839243 192.157377 
L 319.334666 239.665574 
L 319.958521 249.993443 
L 320.582377 258.255738 
L 321.206233 268.583607 
L 324.325512 309.895082 
L 326.820935 334.681967 
L 327.444791 338.813115 
L 329.316358 357.403279 
L 329.940214 359.468852 
L 330.56407 365.665574 
L 334.93106 394.583607 
L 335.554916 396.64918 
L 336.178772 402.845902 
L 337.426483 406.977049 
L 338.674195 415.239344 
L 339.29805 417.304918 
L 339.921906 421.436066 
L 341.169618 425.567213 
L 341.793474 429.698361 
L 342.417329 429.698361 
L 343.041185 522.64918 
L 343.665041 435.895082 
L 344.288897 435.895082 
L 344.912752 440.02623 
L 348.655887 452.419672 
L 349.279743 456.55082 
L 349.903599 456.55082 
L 351.15131 460.681967 
L 351.775166 460.681967 
L 352.399022 462.747541 
L 353.022878 466.878689 
L 353.646733 468.944262 
L 354.270589 468.944262 
L 354.894445 471.009836 
L 355.518301 471.009836 
L 358.013724 479.272131 
L 358.637579 479.272131 
L 359.261435 481.337705 
L 360.509147 481.337705 
L 363.00457 489.6 
L 363.628426 489.6 
L 364.252281 491.665574 
L 364.876137 491.665574 
L 365.499993 493.731148 
L 366.123849 493.731148 
L 366.747705 495.796721 
L 367.37156 495.796721 
L 368.619272 499.927869 
L 369.866983 499.927869 
L 370.490839 501.993443 
L 371.114695 501.993443 
L 371.738551 504.059016 
L 372.362407 504.059016 
L 372.986262 506.12459 
L 374.233974 506.12459 
L 375.481685 510.255738 
L 376.105541 508.190164 
L 377.353253 512.321311 
L 378.600964 512.321311 
L 379.22482 514.386885 
L 379.848676 514.386885 
L 380.472532 516.452459 
L 381.720243 516.452459 
L 382.344099 518.518033 
L 382.967955 518.518033 
L 383.59181 520.583607 
L 384.215666 520.583607 
L 384.839522 518.518033 
L 385.463378 522.64918 
L 386.087234 520.583607 
L 386.711089 522.64918 
L 387.334945 522.64918 
L 387.958801 524.714754 
L 389.206512 524.714754 
L 389.830368 526.780328 
L 391.07808 526.780328 
L 391.701936 528.845902 
L 392.949647 528.845902 
L 393.573503 530.911475 
L 394.197359 528.845902 
L 394.821214 530.911475 
L 396.068926 530.911475 
L 396.692782 532.977049 
L 397.316638 530.911475 
L 398.564349 535.042623 
L 401.683628 535.042623 
L 402.307484 537.108197 
L 402.93134 537.108197 
L 403.555195 539.17377 
L 404.179051 535.042623 
L 404.802907 539.17377 
L 407.29833 539.17377 
L 407.922186 541.239344 
L 411.66532 541.239344 
L 412.289176 543.304918 
L 412.913032 543.304918 
L 413.536888 545.370492 
L 416.032311 545.370492 
L 416.656167 547.436066 
L 418.527734 547.436066 
L 419.15159 549.501639 
L 419.775445 545.370492 
L 421.023157 549.501639 
L 422.270869 549.501639 
L 422.894724 551.567213 
L 426.637859 551.567213 
L 427.261715 553.632787 
L 427.885571 551.567213 
L 428.509426 551.567213 
L 429.133282 553.632787 
L 432.252561 553.632787 
L 432.876417 555.698361 
L 434.747984 555.698361 
L 435.37184 553.632787 
L 435.995696 555.698361 
L 436.619551 555.698361 
L 437.243407 557.763934 
L 439.114974 557.763934 
L 439.73883 555.698361 
L 440.986542 559.829508 
L 444.105821 559.829508 
L 444.729676 561.895082 
L 445.353532 559.829508 
L 446.601244 559.829508 
L 447.2251 561.895082 
L 447.848955 559.829508 
L 448.472811 561.895082 
L 449.096667 559.829508 
L 449.720523 561.895082 
L 451.59209 561.895082 
L 452.215946 563.960656 
L 452.839802 563.960656 
L 453.463657 561.895082 
L 454.087513 563.960656 
L 455.95908 563.960656 
L 456.582936 561.895082 
L 457.206792 563.960656 
L 458.454504 563.960656 
L 459.078359 566.02623 
L 459.702215 563.960656 
L 460.326071 563.960656 
L 460.949927 566.02623 
L 465.316917 566.02623 
L 465.940773 568.091803 
L 466.564629 566.02623 
L 467.81234 566.02623 
L 468.436196 568.091803 
L 469.683907 568.091803 
L 470.307763 570.157377 
L 470.931619 568.091803 
L 472.803186 568.091803 
L 473.427042 570.157377 
L 474.050898 568.091803 
L 474.674754 570.157377 
L 479.6656 570.157377 
L 480.289456 572.222951 
L 480.913311 570.157377 
L 481.537167 572.222951 
L 482.161023 572.222951 
L 482.784879 570.157377 
L 483.408735 572.222951 
L 485.280302 572.222951 
L 485.904158 574.288525 
L 486.528013 574.288525 
L 487.151869 572.222951 
L 487.775725 574.288525 
L 488.399581 574.288525 
L 489.023437 572.222951 
L 489.647292 574.288525 
L 492.766571 574.288525 
L 493.390427 572.222951 
L 494.014283 574.288525 
L 499.005129 574.288525 
L 499.628985 576.354098 
L 503.995975 576.354098 
L 504.619831 578.419672 
L 505.243687 576.354098 
L 508.362966 576.354098 
L 508.986821 578.419672 
L 510.858389 578.419672 
L 511.482244 576.354098 
L 512.1061 578.419672 
L 517.720802 578.419672 
L 518.344658 580.485246 
L 519.59237 580.485246 
L 520.216225 578.419672 
L 522.087793 578.419672 
L 522.711648 580.485246 
L 527.078639 580.485246 
L 527.702495 582.55082 
L 528.32635 580.485246 
L 530.197918 580.485246 
L 530.821773 578.419672 
L 531.445629 580.485246 
L 532.693341 580.485246 
L 533.317197 582.55082 
L 533.941052 580.485246 
L 535.81262 580.485246 
L 536.436475 582.55082 
L 537.060331 580.485246 
L 538.308043 580.485246 
L 538.931899 582.55082 
L 544.546601 582.55082 
L 545.170456 584.616393 
L 546.418168 584.616393 
L 547.042024 582.55082 
L 547.665879 584.616393 
L 548.289735 584.616393 
L 548.913591 582.55082 
L 549.537447 584.616393 
L 553.280581 584.616393 
L 553.904437 586.681967 
L 554.528293 584.616393 
L 557.023716 584.616393 
L 557.647572 586.681967 
L 558.271428 584.616393 
L 561.390706 584.616393 
L 562.014562 586.681967 
L 563.262274 586.681967 
L 563.88613 584.616393 
L 566.381553 584.616393 
L 567.005408 586.681967 
L 567.629264 584.616393 
L 568.25312 586.681967 
L 568.876976 584.616393 
L 569.500832 586.681967 
L 575.739389 586.681967 
L 576.363245 588.747541 
L 576.987101 586.681967 
L 578.234812 586.681967 
L 578.858668 588.747541 
L 579.482524 586.681967 
L 581.977947 586.681967 
L 582.601803 588.747541 
L 583.225659 586.681967 
L 583.849514 586.681967 
L 584.47337 588.747541 
L 585.097226 586.681967 
L 585.721082 586.681967 
L 586.344937 588.747541 
L 586.968793 586.681967 
L 587.592649 588.747541 
L 589.464216 588.747541 
L 590.088072 586.681967 
L 590.711928 586.681967 
L 591.335784 588.747541 
L 591.959639 586.681967 
L 592.583495 588.747541 
L 594.455063 588.747541 
L 595.078918 586.681967 
L 595.702774 590.813115 
L 596.32663 588.747541 
L 601.317476 588.747541 
L 601.941332 590.813115 
L 602.565188 588.747541 
L 603.812899 588.747541 
L 604.436755 590.813115 
L 605.060611 588.747541 
L 605.684466 588.747541 
L 606.308322 590.813115 
L 607.556034 590.813115 
L 608.17989 588.747541 
L 608.803745 590.813115 
L 611.923024 590.813115 
L 612.54688 588.747541 
L 613.170736 590.813115 
L 619.409294 590.813115 
L 620.033149 592.878689 
L 620.657005 590.813115 
L 625.647851 590.813115 
L 626.271707 592.878689 
L 626.895563 590.813115 
L 627.519419 592.878689 
L 628.143274 592.878689 
L 628.76713 590.813115 
L 629.390986 590.813115 
L 630.014842 592.878689 
L 631.262553 592.878689 
L 631.886409 590.813115 
L 632.510265 590.813115 
L 633.134121 592.878689 
L 633.757976 592.878689 
L 634.381832 590.813115 
L 635.629544 590.813115 
L 636.253399 592.878689 
L 636.877255 590.813115 
L 637.501111 592.878689 
L 638.748823 592.878689 
L 639.372678 590.813115 
L 639.996534 592.878689 
L 653.097505 592.878689 
L 653.721361 594.944262 
L 654.345217 592.878689 
L 654.969073 594.944262 
L 655.592929 592.878689 
L 656.216784 592.878689 
L 656.84064 594.944262 
L 657.464496 592.878689 
L 658.712207 592.878689 
L 659.336063 594.944262 
L 659.959919 592.878689 
L 660.583775 594.944262 
L 661.831486 594.944262 
L 662.455342 592.878689 
L 663.703054 592.878689 
L 664.326909 594.944262 
L 664.950765 594.944262 
L 665.574621 592.878689 
L 666.198477 594.944262 
L 668.070044 594.944262 
L 668.6939 592.878689 
L 669.317756 592.878689 
L 669.941611 594.944262 
L 672.437034 594.944262 
L 673.06089 592.878689 
L 673.684746 594.944262 
L 674.308602 594.944262 
L 674.932458 592.878689 
L 675.556313 594.944262 
L 682.418727 594.944262 
L 683.042583 597.009836 
L 683.666438 594.944262 
L 684.91415 594.944262 
L 685.538006 597.009836 
L 686.161862 594.944262 
L 686.785717 594.944262 
L 687.409573 597.009836 
L 688.033429 594.944262 
L 689.28114 594.944262 
L 689.904996 597.009836 
L 690.528852 594.944262 
L 691.152708 597.009836 
L 691.776563 594.944262 
L 692.400419 597.009836 
L 693.024275 594.944262 
L 693.648131 597.009836 
L 694.271987 594.944262 
L 694.895842 597.009836 
L 696.143554 597.009836 
L 696.76741 594.944262 
L 697.391265 597.009836 
L 698.015121 597.009836 
L 698.638977 594.944262 
L 699.262833 597.009836 
L 699.886689 594.944262 
L 700.510544 594.944262 
L 701.1344 597.009836 
L 701.758256 594.944262 
L 702.382112 597.009836 
L 703.005967 597.009836 
L 703.629823 594.944262 
L 704.253679 597.009836 
L 704.877535 594.944262 
L 705.501391 597.009836 
L 706.125246 594.944262 
L 706.749102 597.009836 
L 707.996814 597.009836 
L 708.620669 594.944262 
L 709.244525 597.009836 
L 709.868381 594.944262 
L 710.492237 597.009836 
L 712.363804 597.009836 
L 712.98766 594.944262 
L 713.611516 597.009836 
L 724.217064 597.009836 
L 724.84092 599.07541 
L 725.464775 597.009836 
L 730.455622 597.009836 
L 731.079477 599.07541 
L 731.703333 597.009836 
L 733.5749 597.009836 
L 734.198756 599.07541 
L 734.822612 599.07541 
L 735.446468 597.009836 
L 736.070324 599.07541 
L 736.694179 599.07541 
L 737.318035 597.009836 
L 737.941891 597.009836 
L 738.565747 599.07541 
L 739.189602 599.07541 
L 739.813458 597.009836 
L 740.437314 599.07541 
L 742.308881 599.07541 
L 742.932737 597.009836 
L 743.556593 599.07541 
L 744.180449 597.009836 
L 744.804304 599.07541 
L 745.42816 597.009836 
L 746.675872 597.009836 
L 747.299727 599.07541 
L 756.033708 599.07541 
L 756.657564 597.009836 
L 757.28142 599.07541 
L 757.905276 599.07541 
L 758.529131 597.009836 
L 759.152987 599.07541 
L 764.767689 599.07541 
L 765.391545 597.009836 
L 766.015401 599.07541 
L 777.86866 599.07541 
L 778.492516 601.140984 
L 779.116372 599.07541 
L 779.740228 599.07541 
L 780.364084 601.140984 
L 781.611795 601.140984 
L 782.235651 599.07541 
L 782.859507 601.140984 
L 783.483362 599.07541 
L 784.107218 601.140984 
L 784.731074 599.07541 
L 785.35493 601.140984 
L 785.978786 601.140984 
L 786.602641 599.07541 
L 787.226497 601.140984 
L 787.850353 597.009836 
L 789.098064 601.140984 
L 789.72192 601.140984 
L 790.345776 599.07541 
L 790.969632 599.07541 
L 791.593488 601.140984 
L 792.217343 599.07541 
L 792.841199 601.140984 
L 793.465055 601.140984 
L 794.088911 599.07541 
L 795.960478 599.07541 
L 796.584334 601.140984 
L 797.20819 599.07541 
L 797.832045 601.140984 
L 798.455901 599.07541 
L 799.079757 601.140984 
L 799.703613 601.140984 
L 800.327468 599.07541 
L 800.951324 601.140984 
L 802.822891 601.140984 
L 803.446747 599.07541 
L 804.070603 599.07541 
L 804.694459 601.140984 
L 806.566026 601.140984 
L 807.189882 599.07541 
L 807.813738 601.140984 
L 808.437593 599.07541 
L 809.061449 601.140984 
L 809.685305 599.07541 
L 810.309161 601.140984 
L 810.933017 599.07541 
L 811.556872 601.140984 
L 812.180728 601.140984 
L 812.804584 599.07541 
L 813.42844 601.140984 
L 814.052295 601.140984 
L 814.676151 599.07541 
L 815.300007 601.140984 
L 816.547719 601.140984 
L 817.171574 599.07541 
L 817.79543 601.140984 
L 825.905555 601.140984 
L 826.529411 603.206557 
L 827.153267 601.140984 
L 832.144113 601.140984 
L 832.767969 599.07541 
L 833.391824 601.140984 
L 838.382671 601.140984 
L 839.006526 603.206557 
L 839.630382 601.140984 
L 841.50195 601.140984 
L 842.125805 603.206557 
L 842.749661 601.140984 
L 843.373517 603.206557 
L 843.997373 603.206557 
L 844.621228 601.140984 
L 847.116652 601.140984 
L 847.740507 603.206557 
L 848.364363 601.140984 
L 850.859786 601.140984 
L 851.483642 603.206557 
L 852.107498 603.206557 
L 852.731354 601.140984 
L 853.355209 603.206557 
L 853.979065 601.140984 
L 855.850632 601.140984 
L 856.474488 603.206557 
L 857.098344 601.140984 
L 857.7222 603.206557 
L 858.346055 601.140984 
L 859.593767 601.140984 
L 860.217623 603.206557 
L 860.841479 601.140984 
L 862.08919 601.140984 
L 862.713046 603.206557 
L 863.336902 601.140984 
L 865.832325 601.140984 
L 866.456181 603.206557 
L 867.080036 601.140984 
L 867.703892 603.206557 
L 868.951604 603.206557 
L 869.575459 601.140984 
L 870.199315 603.206557 
L 870.823171 601.140984 
L 871.447027 603.206557 
L 873.318594 603.206557 
L 873.94245 601.140984 
L 874.566306 603.206557 
L 875.190161 601.140984 
L 875.814017 603.206557 
L 878.933296 603.206557 
L 879.557152 601.140984 
L 880.181008 601.140984 
L 880.804863 603.206557 
L 881.428719 601.140984 
L 882.052575 603.206557 
L 883.300286 603.206557 
L 883.924142 601.140984 
L 885.171854 601.140984 
L 885.79571 603.206557 
L 886.419565 601.140984 
L 887.043421 601.140984 
L 887.667277 603.206557 
L 892.658123 603.206557 
L 893.281979 601.140984 
L 893.905835 603.206557 
L 895.777402 603.206557 
L 896.401258 601.140984 
L 897.648969 605.272131 
L 898.896681 601.140984 
L 899.520537 603.206557 
L 900.768248 603.206557 
L 901.392104 601.140984 
L 902.639816 601.140984 
L 903.263671 603.206557 
L 914.493075 603.206557 
L 915.116931 605.272131 
L 915.740787 603.206557 
L 918.860066 603.206557 
L 919.483921 605.272131 
L 920.107777 603.206557 
L 923.850912 603.206557 
L 924.474768 601.140984 
L 925.722479 605.272131 
L 926.346335 603.206557 
L 927.594047 603.206557 
L 928.217902 605.272131 
L 928.841758 605.272131 
L 929.465614 603.206557 
L 930.08947 603.206557 
L 930.713325 605.272131 
L 931.337181 603.206557 
L 933.208749 603.206557 
L 933.832604 605.272131 
L 934.45646 603.206557 
L 935.080316 605.272131 
L 935.704172 601.140984 
L 936.328027 605.272131 
L 938.199595 605.272131 
L 938.82345 603.206557 
L 939.447306 603.206557 
L 940.071162 605.272131 
L 940.695018 603.206557 
L 942.566585 603.206557 
L 943.190441 605.272131 
L 943.814297 603.206557 
L 944.438152 605.272131 
L 945.062008 605.272131 
L 945.685864 603.206557 
L 948.805143 603.206557 
L 949.428999 605.272131 
L 950.052854 603.206557 
L 950.67671 605.272131 
L 951.300566 603.206557 
L 951.924422 605.272131 
L 952.548278 603.206557 
L 953.795989 603.206557 
L 954.419845 605.272131 
L 955.043701 605.272131 
L 955.667556 603.206557 
L 956.291412 605.272131 
L 956.915268 603.206557 
L 957.539124 605.272131 
L 958.16298 603.206557 
L 958.786835 603.206557 
L 959.410691 605.272131 
L 960.034547 603.206557 
L 960.658403 605.272131 
L 961.282258 605.272131 
L 961.906114 603.206557 
L 962.52997 605.272131 
L 963.153826 603.206557 
L 963.777682 605.272131 
L 964.401537 603.206557 
L 965.649249 603.206557 
L 966.273105 605.272131 
L 966.89696 605.272131 
L 967.520816 603.206557 
L 968.768528 603.206557 
L 969.392383 605.272131 
L 970.016239 603.206557 
L 970.640095 605.272131 
L 971.263951 603.206557 
L 972.511662 603.206557 
L 973.135518 605.272131 
L 974.38323 605.272131 
L 975.007085 603.206557 
L 975.630941 605.272131 
L 976.254797 605.272131 
L 976.878653 603.206557 
L 977.502509 605.272131 
L 978.126364 603.206557 
L 978.75022 605.272131 
L 983.117211 605.272131 
L 983.741066 603.206557 
L 984.364922 603.206557 
L 984.988778 605.272131 
L 991.851191 605.272131 
L 992.475047 603.206557 
L 993.098903 605.272131 
L 994.97047 605.272131 
L 995.594326 607.337705 
L 996.218182 605.272131 
L 996.218182 605.272131 
" style="fill:none;stroke:#1f77b4;stroke-linecap:square;stroke-width:1.5;"/>
   </g>
   <g id="patch_3">
    <path d="M 144 640.8 
L 144 86.4 
" style="fill:none;stroke:#000000;stroke-linecap:square;stroke-linejoin:miter;stroke-width:0.8;"/>
   </g>
   <g id="patch_4">
    <path d="M 1036.8 640.8 
L 1036.8 86.4 
" style="fill:none;stroke:#000000;stroke-linecap:square;stroke-linejoin:miter;stroke-width:0.8;"/>
   </g>
   <g id="patch_5">
    <path d="M 144 640.8 
L 1036.8 640.8 
" style="fill:none;stroke:#000000;stroke-linecap:square;stroke-linejoin:miter;stroke-width:0.8;"/>
   </g>
   <g id="patch_6">
    <path d="M 144 86.4 
L 1036.8 86.4 
" style="fill:none;stroke:#000000;stroke-linecap:square;stroke-linejoin:miter;stroke-width:0.8;"/>
   </g>
   <g id="text_17">
    <!-- График зарядки и разрядки конденсатора -->
    <g transform="translate(454.741875 66.4)scale(0.12 -0.12)">
     <defs>
      <path d="M 628 0 
L 628 4666 
L 3531 4666 
L 3531 4134 
L 1259 4134 
L 1259 0 
L 628 0 
z
" id="DejaVuSans-413" transform="scale(0.015625)"/>
      <path d="M 947 1747 
Q 947 1013 1173 702 
Q 1400 391 1784 391 
Q 2091 391 2447 916 
L 2447 2578 
Q 2091 3103 1784 3103 
Q 1400 3103 1173 2792 
Q 947 2481 947 1747 
z
M 2447 -1331 
L 2447 447 
Q 2269 153 2064 31 
Q 1859 -91 1600 -91 
Q 1078 -91 714 392 
Q 350 875 350 1734 
Q 350 2594 714 3089 
Q 1078 3584 1600 3584 
Q 1859 3584 2064 3465 
Q 2269 3347 2447 3053 
L 2447 4666 
L 3025 4666 
L 3025 3053 
Q 3203 3347 3408 3465 
Q 3613 3584 3872 3584 
Q 4394 3584 4758 3089 
Q 5122 2594 5122 1734 
Q 5122 875 4758 392 
Q 4394 -91 3872 -91 
Q 3613 -91 3408 31 
Q 3203 153 3025 447 
L 3025 -1331 
L 2447 -1331 
z
M 4525 1747 
Q 4525 2481 4298 2792 
Q 4072 3103 3688 3103 
Q 3381 3103 3025 2578 
L 3025 916 
Q 3381 391 3688 391 
Q 4072 391 4298 702 
Q 4525 1013 4525 1747 
z
" id="DejaVuSans-444" transform="scale(0.015625)"/>
      <path d="M 581 3500 
L 1153 3500 
L 1153 1856 
L 2775 3500 
L 3481 3500 
L 2144 2147 
L 3653 0 
L 3009 0 
L 1769 1766 
L 1153 1141 
L 1153 0 
L 581 0 
L 581 3500 
z
" id="DejaVuSans-43a" transform="scale(0.015625)"/>
      <path d="M 2206 1888 
Q 2594 1813 2809 1584 
Q 3025 1356 3025 1019 
Q 3025 478 2622 193 
Q 2219 -91 1475 -91 
Q 1225 -91 961 -47 
Q 697 -3 416 84 
L 416 619 
Q 638 503 903 445 
Q 1169 388 1459 388 
Q 1931 388 2195 563 
Q 2459 738 2459 1019 
Q 2459 1294 2225 1461 
Q 1991 1628 1563 1628 
L 1100 1628 
L 1100 2103 
L 1584 2103 
Q 1947 2103 2158 2242 
Q 2369 2381 2369 2600 
Q 2369 2800 2151 2944 
Q 1934 3088 1563 3088 
Q 1341 3088 1089 3047 
Q 838 3006 534 2916 
L 534 3438 
Q 841 3513 1106 3550 
Q 1372 3588 1609 3588 
Q 2222 3588 2576 3342 
Q 2931 3097 2931 2656 
Q 2931 2366 2743 2164 
Q 2556 1963 2206 1888 
z
" id="DejaVuSans-437" transform="scale(0.015625)"/>
      <path d="M 1384 459 
L 3053 459 
L 3053 3041 
L 1844 3041 
L 1844 2603 
Q 1844 1316 1475 628 
L 1384 459 
z
M 550 459 
Q 834 584 959 850 
Q 1266 1509 1266 2838 
L 1266 3500 
L 3631 3500 
L 3631 459 
L 4091 459 
L 4091 -884 
L 3631 -884 
L 3631 0 
L 794 0 
L 794 -884 
L 334 -884 
L 334 459 
L 550 459 
z
" id="DejaVuSans-434" transform="scale(0.015625)"/>
      <path d="M 1959 3097 
Q 1497 3097 1228 2736 
Q 959 2375 959 1747 
Q 959 1119 1226 758 
Q 1494 397 1959 397 
Q 2419 397 2687 759 
Q 2956 1122 2956 1747 
Q 2956 2369 2687 2733 
Q 2419 3097 1959 3097 
z
M 1959 3584 
Q 2709 3584 3137 3096 
Q 3566 2609 3566 1747 
Q 3566 888 3137 398 
Q 2709 -91 1959 -91 
Q 1206 -91 779 398 
Q 353 888 353 1747 
Q 353 2609 779 3096 
Q 1206 3584 1959 3584 
z
" id="DejaVuSans-43e" transform="scale(0.015625)"/>
      <path d="M 188 3500 
L 3541 3500 
L 3541 3041 
L 2147 3041 
L 2147 0 
L 1581 0 
L 1581 3041 
L 188 3041 
L 188 3500 
z
" id="DejaVuSans-442" transform="scale(0.015625)"/>
     </defs>
     <use xlink:href="#DejaVuSans-413"/>
     <use x="60.986328" xlink:href="#DejaVuSans-440"/>
     <use x="124.462891" xlink:href="#DejaVuSans-430"/>
     <use x="185.742188" xlink:href="#DejaVuSans-444"/>
     <use x="271.240234" xlink:href="#DejaVuSans-438"/>
     <use x="336.230469" xlink:href="#DejaVuSans-43a"/>
     <use x="396.630859" xlink:href="#DejaVuSans-20"/>
     <use x="428.417969" xlink:href="#DejaVuSans-437"/>
     <use x="481.591797" xlink:href="#DejaVuSans-430"/>
     <use x="542.871094" xlink:href="#DejaVuSans-440"/>
     <use x="606.347656" xlink:href="#DejaVuSans-44f"/>
     <use x="666.503906" xlink:href="#DejaVuSans-434"/>
     <use x="735.644531" xlink:href="#DejaVuSans-43a"/>
     <use x="796.044922" xlink:href="#DejaVuSans-438"/>
     <use x="861.035156" xlink:href="#DejaVuSans-20"/>
     <use x="892.822266" xlink:href="#DejaVuSans-438"/>
     <use x="957.8125" xlink:href="#DejaVuSans-20"/>
     <use x="989.599609" xlink:href="#DejaVuSans-440"/>
     <use x="1053.076172" xlink:href="#DejaVuSans-430"/>
     <use x="1114.355469" xlink:href="#DejaVuSans-437"/>
     <use x="1167.529297" xlink:href="#DejaVuSans-440"/>
     <use x="1231.005859" xlink:href="#DejaVuSans-44f"/>
     <use x="1291.162109" xlink:href="#DejaVuSans-434"/>
     <use x="1360.302734" xlink:href="#DejaVuSans-43a"/>
     <use x="1420.703125" xlink:href="#DejaVuSans-438"/>
     <use x="1485.693359" xlink:href="#DejaVuSans-20"/>
     <use x="1517.480469" xlink:href="#DejaVuSans-43a"/>
     <use x="1577.880859" xlink:href="#DejaVuSans-43e"/>
     <use x="1639.0625" xlink:href="#DejaVuSans-43d"/>
     <use x="1704.443359" xlink:href="#DejaVuSans-434"/>
     <use x="1773.583984" xlink:href="#DejaVuSans-435"/>
     <use x="1835.107422" xlink:href="#DejaVuSans-43d"/>
     <use x="1900.488281" xlink:href="#DejaVuSans-441"/>
     <use x="1955.46875" xlink:href="#DejaVuSans-430"/>
     <use x="2016.748047" xlink:href="#DejaVuSans-442"/>
     <use x="2075" xlink:href="#DejaVuSans-43e"/>
     <use x="2136.181641" xlink:href="#DejaVuSans-440"/>
     <use x="2199.658203" xlink:href="#DejaVuSans-430"/>
    </g>
   </g>
  </g>
 </g>
 <defs>
  <clipPath id="p900d1375dc">
   <rect height="554.4" width="892.8" x="144" y="86.4"/>
  </clipPath>
 </defs>
</svg>
